<?xml version="1.0" encoding="UTF-8"?><svg id="Layer_1" xmlns="http://www.w3.org/2000/svg" viewBox="0 0 16 16"><defs><style>.cls-1{fill:#404040;}</style></defs><path class="cls-1" d="M8.33,15c-.94,0-1.86-.19-2.73-.55-.83-.35-1.58-.86-2.23-1.5-.64-.64-1.15-1.39-1.5-2.22l1.84-.78c.25,.59,.61,1.13,1.07,1.59,.46,.46,.99,.82,1.59,1.07,1.23,.52,2.66,.52,3.89,0,.6-.25,1.13-.61,1.59-1.07,.46-.46,.82-1,1.07-1.59l1.84,.78c-.35,.83-.86,1.58-1.5,2.23-.64,.64-1.39,1.15-2.22,1.5-.86,.37-1.78,.55-2.73,.55Z"/><path class="cls-1" d="M12.94,6.06c-.25-.59-.61-1.13-1.07-1.59-.46-.46-.99-.82-1.59-1.07-1.23-.52-2.66-.52-3.89,0-.6,.25-1.13,.61-1.59,1.07-.46,.46-.82,1-1.07,1.59l-1.84-.78c.35-.83,.86-1.58,1.5-2.23,.64-.64,1.39-1.15,2.22-1.5,1.73-.73,3.72-.73,5.45,0,.83,.35,1.58,.86,2.23,1.5,.64,.64,1.15,1.39,1.5,2.22l-1.84,.78Z"/><polyline class="cls-1" points="15 3 15 7 11 7"/><polyline class="cls-1" points="1 13 1 9 5 9"/></svg>