<svg id="Layer_1" data-name="Layer 1" xmlns="http://www.w3.org/2000/svg" viewBox="0 0 1024 1024"><defs><style>.cls-1{fill:#fff;}</style></defs><title>Artboard 1</title><path class="cls-1" d="M839.88,425.16c.08,1.27.15,2.54.22,3.81,1.73,48-1.65,95.57-22.27,139.76-36.93,79.15-97.6,128.83-184.71,144-4.67.81-7.79,2.49-10.65,6.18-25.12,32.52-53.26,62.14-85.61,87.59A326.38,326.38,0,0,1,458.4,851.8c-13.79,5.66-23.06,5.74-37.23,2.09,10.6-12.75,21.18-25.24,31.5-37.95,13.62-16.77,23.07-35.68,29.73-56.28a59.55,59.55,0,0,0,.1-37.8c-2-6.4-5.18-8.55-11.89-9.17-48.71-4.53-97.73-6.55-145.92-15.74-24.4-4.66-48.38-11.34-68.62-26.49-13.31-10-23.53-23.23-34.13-36.07-17.49-21.2-28.24-46.11-31.1-72.3-4.47-40.91-5.38-82.4,4.52-123.12,4.76-18.39,11.62-36,19.5-53.28C219,376.53,225.62,369,232,361.45a346.22,346.22,0,0,1,64.51-59.21C355.35,261,421.79,242,491.4,231c33.47-5.32,67.1-9.15,101-7.71,55.34,2.36,108.21,14.17,155.71,44.16,46.77,29.53,72.27,73.72,85.91,126,1.79,6.87.81,14.56,5.69,20.57C837.7,417.73,839.59,421.44,839.88,425.16ZM406.2,399.22c3.84-8.45.55-15-6.25-19.75-6.26-4.36-13.36-4.25-19.44.56-7,5.56-9.06,12.73-4.63,21.07,2.55,7.21,8.36,9.89,15.25,9.65C398.51,410.5,404,406.76,406.2,399.22Zm21.68,2.57c3.69,7.77,10.75,7.86,17.85,7.86h98.84q59.4,0,118.8,0c9.11,0,16.42-2.43,18.85-12.42,2.74-13.1-4.09-21.73-18-21.91-20.29-.27-40.59-.08-60.89-.08q-78.84,0-157.7,0C427.89,375.33,420.24,387,427.88,401.79ZM553.46,489.4c37,0,73.94.09,110.91-.06,12.19,0,20.63-8.86,19-19.17-1.45-9.31-8.91-14.93-20.5-14.95q-61.95-.12-123.9,0c-31.31,0-62.62-.06-93.93,0-12.7,0-21.23,7.6-20.7,17.91.5,9.67,8.37,16.21,20.17,16.24C480.85,489.46,517.15,489.4,553.46,489.4Zm.21,80c36.63,0,73.27.06,109.9,0,12.06,0,20.34-7.39,20.09-17.38-.23-9.36-8.64-16.79-19.78-16.81q-109.9-.12-219.81,0c-4.72,0-9.32.51-13.1,3.74-5.45,4.66-8.75,10.73-6.31,17.6,2.84,8,8.68,13,18.1,13C479.73,569.25,516.7,569.34,553.67,569.35ZM407.83,553.19c-.05-9.16-8.06-17-17.33-17a17.14,17.14,0,0,0-16.84,17.31,17.35,17.35,0,0,0,17.16,17.11C399.83,570.55,407.88,562.3,407.83,553.19Zm-17-96.62a16.66,16.66,0,0,0-17.09,16.76,17.18,17.18,0,0,0,16.8,17.3c9,.11,17.15-7.91,17.29-17A17.08,17.08,0,0,0,390.8,456.57Z"/><path class="cls-1" d="M512,64C264.58,64,64,264.58,64,512S264.58,960,512,960,960,759.42,960,512,759.42,64,512,64Zm0,860.5C284.18,924.5,99.5,739.82,99.5,512S284.18,99.5,512,99.5,924.5,284.18,924.5,512,739.82,924.5,512,924.5Z"/></svg>