<svg id="Layer_1" data-name="Layer 1" xmlns="http://www.w3.org/2000/svg" viewBox="0 0 1024 1024"><defs><style>.cls-1{fill:#fff;}</style></defs><title>macostrayicon</title><path class="cls-1" d="M863,420c.07,1.35.15,2.71.23,4.07,1.85,51.43-1.77,102.3-23.84,149.6C799.89,658.4,735,711.58,641.71,727.79c-5,.86-8.34,2.66-11.39,6.61-26.89,34.82-57,66.52-91.64,93.76a349.72,349.72,0,0,1-84,48.51c-14.76,6.05-24.68,6.14-39.85,2.24,11.35-13.65,22.67-27,33.72-40.63,14.58-17.95,24.69-38.19,31.82-60.23a63.73,63.73,0,0,0,.1-40.46c-2.17-6.85-5.54-9.16-12.72-9.83-52.14-4.84-104.6-7-156.18-16.84-26.13-5-51.79-12.14-73.46-28.36C223.89,671.89,213,657.7,201.6,644c-18.72-22.69-30.23-49.36-33.29-77.39-4.78-43.79-5.75-88.2,4.84-131.78,5.1-19.69,12.44-38.56,20.87-57,4.48-9.81,11.52-17.91,18.4-25.95,20.42-23.89,43-45.11,69-63.38C344.4,244.25,415.52,224,490,212.14c35.83-5.69,71.83-9.79,108.14-8.25,59.23,2.52,115.82,15.17,166.67,47.27,50.06,31.6,77.35,78.9,91.95,134.86,1.92,7.35.87,15.58,6.09,22C860.69,412.06,862.71,416,863,420Zm-464.2-27.77c4.1-9.05.59-16.07-6.69-21.14-6.71-4.67-14.31-4.55-20.81.6-7.51,5.95-9.7,13.63-4.95,22.55,2.73,7.72,8.94,10.58,16.31,10.33C390.6,404.32,396.48,400.31,398.83,392.24ZM422,395c4,8.31,11.51,8.41,19.11,8.41H546.93q63.59,0,127.17,0c9.75,0,17.57-2.6,20.17-13.29,2.94-14-4.38-23.26-19.3-23.46-21.72-.28-43.45-.08-65.17-.08q-84.4,0-168.8,0C422,366.67,413.86,379.12,422,395Zm134.41,93.77c39.58,0,79.15.1,118.72-.06,13.05-.05,22.08-9.48,20.37-20.51-1.55-10-9.54-16-21.95-16q-66.3-.14-132.61,0c-33.52,0-67-.07-100.54,0-13.59,0-22.72,8.13-22.15,19.17.53,10.36,9,17.35,21.59,17.38C478.73,488.83,517.58,488.77,556.44,488.76Zm.23,85.58c39.21,0,78.42.06,117.64,0,12.9,0,21.77-7.91,21.5-18.6-.25-10-9.25-18-21.18-18q-117.63-.15-235.27-.05c-5.05,0-10,.55-14,4-5.84,5-9.36,11.49-6.75,18.84,3,8.55,9.28,13.93,19.37,13.89C477.53,574.23,517.1,574.33,556.67,574.34Zm-156.1-17.29c-.05-9.82-8.62-18.22-18.55-18.19a18.35,18.35,0,0,0-18,18.53,18.56,18.56,0,0,0,18.36,18.31C392,575.62,400.62,566.8,400.57,557.05ZM382.35,453.62a17.83,17.83,0,0,0-18.3,17.94,18.38,18.38,0,0,0,18,18.52c9.63.12,18.36-8.47,18.51-18.21A18.28,18.28,0,0,0,382.35,453.62Z"/><path class="cls-1" d="M512,17C238.62,17,17,238.62,17,512s221.62,495,495,495,495-221.62,495-495S785.38,17,512,17Zm0,935.81C268.55,952.81,71.19,755.45,71.19,512S268.55,71.19,512,71.19,952.81,268.55,952.81,512,755.45,952.81,512,952.81Z"/></svg>