<?xml version="1.0" encoding="UTF-8"?><svg id="Layer_1" xmlns="http://www.w3.org/2000/svg" viewBox="0 0 18 18"><defs><style>.cls-1{fill:#404040;}</style></defs><path class="cls-1" d="M3.07,11.74l-.02-.6c-.07-1.17,.32-2.37,1.36-3.61,.74-.87,1.33-1.61,1.33-2.39s-.53-1.33-1.68-1.38c-.76,0-1.68,.28-2.28,.69L1,1.94c.83-.48,2.21-.94,3.84-.94,3.03,0,4.41,1.68,4.41,3.59,0,1.75-1.08,2.9-1.95,3.86-.85,.94-1.2,1.84-1.17,2.87v.41H3.07Zm-.6,3.17c0-1.22,.85-2.09,2.05-2.09s2.05,.87,2.07,2.09c0,1.2-.83,2.09-2.07,2.09s-2.05-.9-2.05-2.09Z"/></svg>