<?xml version="1.0" encoding="UTF-8"?><svg id="Layer_1" xmlns="http://www.w3.org/2000/svg" viewBox="0 0 18 18"><defs><style>.cls-1{fill:#404040;}</style></defs><path class="cls-1" d="M16.27,10.33c.4,0,.73-.36,.73-.8v-1.07c0-.44-.33-.8-.73-.8s-.84-.34-.97-.76l-.36-.87c-.21-.39-.14-.94,.14-1.22s.27-.77-.05-1.09l-.75-.75c-.31-.31-.8-.33-1.09-.05s-.84,.35-1.22,.14l-.87-.36c-.42-.13-.76-.57-.76-.97s-.36-.73-.8-.73h-1.07c-.44,0-.8,.33-.8,.73s-.34,.84-.76,.97l-.87,.36c-.39,.21-.94,.14-1.22-.14s-.77-.27-1.09,.05l-.75,.75c-.31,.31-.33,.8-.05,1.09s.35,.84,.14,1.22l-.36,.87c-.13,.42-.57,.76-.97,.76s-.73,.36-.73,.8v1.07c0,.44,.33,.8,.73,.8s.84,.34,.97,.76l.36,.87c.21,.39,.14,.94-.14,1.22s-.27,.77,.05,1.09l.75,.75c.31,.31,.8,.33,1.09,.05s.84-.35,1.22-.14l.87,.36c.42,.13,.76,.57,.76,.97s.36,.73,.8,.73h1.07c.44,0,.8-.33,.8-.73s.34-.84,.76-.97l.87-.36c.39-.21,.94-.14,1.22,.14s.77,.27,1.09-.05l.75-.75c.31-.31,.33-.8,.05-1.09s-.35-.84-.14-1.22l.36-.87c.13-.42,.57-.76,.97-.76Zm-7.27,1.6c-1.62,0-2.93-1.32-2.93-2.93s1.31-2.93,2.93-2.93,2.93,1.32,2.93,2.93-1.31,2.93-2.93,2.93Z"/></svg>