<?xml version="1.0" encoding="UTF-8"?>
<svg id="Layer_1" data-name="Layer 1" xmlns="http://www.w3.org/2000/svg" viewBox="0 0 243 243">
  <defs>
    <style>
      .cls-1 {
        fill: #f0f;
      }
    </style>
  </defs>
  <path class="cls-1" d="M214.54,20c4.67,0,8.46,3.8,8.46,8.46v77.34c0,2.26-.88,4.39-2.48,5.99l-108.73,108.73c-2.16,2.16-4.68,2.48-5.99,2.48s-3.83-.32-5.99-2.48L22.48,143.18c-3.3-3.3-3.3-8.67,0-11.97L131.21,22.48c1.6-1.6,3.72-2.48,5.99-2.48h77.34M214.54,0h-77.34C129.65,0,122.41,3,117.07,8.34L8.34,117.07c-11.12,11.12-11.12,29.14,0,40.26l77.34,77.34c5.56,5.56,12.84,8.34,20.13,8.34s14.57-2.78,20.13-8.34l108.73-108.73c5.34-5.34,8.34-12.58,8.34-20.13V28.46C243,12.74,230.26,0,214.54,0h0Z"/>
  <path class="cls-1" d="M179.94,79.67c-9.59,0-17.39-7.8-17.39-17.39s7.8-17.39,17.39-17.39,17.39,7.8,17.39,17.39-7.8,17.39-17.39,17.39Z"/>
</svg>