<?xml version="1.0" encoding="UTF-8"?>
<svg id="Layer_1" data-name="Layer 1" xmlns="http://www.w3.org/2000/svg" viewBox="0 0 248 187">
  <defs>
    <style>
      .cls-1 {
        fill: #f0f;
      }
    </style>
  </defs>
  <path class="cls-1" d="M17.5,34.79C7.96,34.79.21,27.04.21,17.5S7.96.21,17.5.21s17.29,7.76,17.29,17.29-7.76,17.29-17.29,17.29Z"/>
  <path class="cls-1" d="M230.5,0H67.5c-9.67,0-17.5,7.84-17.5,17.5s7.83,17.5,17.5,17.5h163c9.67,0,17.5-7.84,17.5-17.5S240.17,0,230.5,0Z"/>
  <path class="cls-1" d="M17.5,110.79C7.96,110.79.21,103.04.21,93.5s7.76-17.29,17.29-17.29,17.29,7.76,17.29,17.29-7.76,17.29-17.29,17.29Z"/>
  <path class="cls-1" d="M230.5,76H67.5c-9.67,0-17.5,7.84-17.5,17.5s7.83,17.5,17.5,17.5h163c9.67,0,17.5-7.84,17.5-17.5s-7.83-17.5-17.5-17.5Z"/>
  <path class="cls-1" d="M17.5,186.79c-9.54,0-17.29-7.76-17.29-17.29s7.76-17.29,17.29-17.29,17.29,7.76,17.29,17.29-7.76,17.29-17.29,17.29Z"/>
  <path class="cls-1" d="M230.5,152H67.5c-9.67,0-17.5,7.84-17.5,17.5s7.83,17.5,17.5,17.5h163c9.67,0,17.5-7.84,17.5-17.5s-7.83-17.5-17.5-17.5Z"/>
</svg>