<?xml version="1.0" encoding="UTF-8"?><svg id="Layer_1" xmlns="http://www.w3.org/2000/svg" viewBox="0 0 15 15"><defs><style>.cls-1{fill:#8c8b8b;}</style></defs><path class="cls-1" d="M11,6v7H4V6h7m0-1H4c-.55,0-1,.45-1,1v7c0,.55,.45,1,1,1h7c.55,0,1-.45,1-1V6c0-.55-.45-1-1-1h0Z"/><polygon class="cls-1" points="6 7 5 7 5 12 6 12 6 7 6 7"/><polygon class="cls-1" points="8 7 7 7 7 12 8 12 8 7 8 7"/><polygon class="cls-1" points="10 7 9 7 9 12 10 12 10 7 10 7"/><polygon class="cls-1" points="13 3 2 3 2 4 13 4 13 3 13 3"/><path class="cls-1" d="M9,2v1h-3v-1h3m0-1h-3c-.55,0-1,.45-1,1v1c0,.55,.45,1,1,1h3c.55,0,1-.45,1-1v-1c0-.55-.45-1-1-1h0Z"/></svg>