<svg xmlns="http://www.w3.org/2000/svg" xmlns:xlink="http://www.w3.org/1999/xlink" viewBox="0 0 108 108"><defs><style>.cls-1{fill:none;}.cls-2{isolation:isolate;}.cls-3{clip-path:url(#clip-path);}.cls-4{fill:url(#linear-gradient);}.cls-5,.cls-6{mix-blend-mode:multiply;opacity:0.08;}.cls-6{fill:url(#linear-gradient-2);}.cls-7{fill:#fff;}</style><clipPath id="clip-path"><circle class="cls-1" cx="54" cy="54" r="54"/></clipPath><linearGradient id="linear-gradient" x1="54" x2="54" y2="108" gradientUnits="userSpaceOnUse"><stop offset="0" stop-color="#f7d114"/><stop offset="1" stop-color="#f5c200"/></linearGradient><linearGradient id="linear-gradient-2" x1="160.26" y1="162.68" x2="70.63" y2="66.7" gradientUnits="userSpaceOnUse"><stop offset="0.32" stop-color="#fff"/><stop offset="0.79" stop-color="#fff"/><stop offset="1"/></linearGradient></defs><g class="cls-2"><g id="mask"><g class="cls-3"><rect class="cls-4" width="108" height="108"/><polyline class="cls-5" points="46.99 85.28 27.15 68.8 68.84 27.84 84.31 56.79"/><polyline class="cls-6" points="44.99 88.01 126.03 164.59 163 129.04 81.67 29.67 58.01 78.82 44.99 88.1"/><path class="cls-7" d="M44.1,87.58a28.07,28.07,0,0,0,3.71-4.42c1.37-2.1,2.8-4.19,3.06-6.81a6.62,6.62,0,0,0-.49-2.92c-.15-.42-.46-.44-.82-.48-3.74-.33-7.5-.62-11.23-1-2.93-.33-5.93-.57-8.62-1.9A16.1,16.1,0,0,1,20.6,58a30.93,30.93,0,0,1,1-16,20.25,20.25,0,0,1,5.58-8.28,38.23,38.23,0,0,1,9.55-6.45,50.5,50.5,0,0,1,13.11-4,58.22,58.22,0,0,1,12-1,32.21,32.21,0,0,1,16.23,4.57,20,20,0,0,1,8.8,12.87,28.07,28.07,0,0,1-1.48,18C81.74,66,75.39,71.26,66.29,72.9a2,2,0,0,0-1.35.79A50.59,50.59,0,0,1,55.71,83a36.69,36.69,0,0,1-7.16,4.13A6.74,6.74,0,0,1,44.1,87.58Z"/><rect class="cls-1" width="108.01" height="108.01"/></g></g></g></svg>