<?xml version="1.0" encoding="UTF-8"?>
<svg id="Layer_1" data-name="Layer 1" xmlns="http://www.w3.org/2000/svg" viewBox="0 0 165 160">
  <defs>
    <style>
      .cls-1 {
        fill: #f0f;
      }
    </style>
  </defs>
  <path class="cls-1" d="M58.75,159.14c3.37-3.27,6.4-6.88,9.04-10.77,3.34-5.12,6.82-10.21,7.45-16.59.14-2.43-.26-4.86-1.19-7.11-.37-1.02-1.12-1.07-2-1.17-9.11-.8-18.27-1.51-27.36-2.44-7.14-.8-14.45-1.39-21-4.63-11.81-5.49-20.13-16.49-22.19-29.36-2.63-12.98-1.79-26.43,2.44-38.98,2.78-7.75,7.45-14.69,13.59-20.17,6.92-6.38,14.76-11.68,23.27-15.71,10.15-4.68,20.9-7.96,31.94-9.75C82.37.65,92.17-.17,101.97.03c13.94.13,27.58,3.98,39.54,11.13,11.09,7.12,18.83,18.43,21.44,31.35,3.66,14.62,2.39,30.03-3.61,43.85-8.89,20.2-24.36,33.01-46.53,37.01-1.31.17-2.5.86-3.29,1.92-6.48,8.5-14.04,16.13-22.49,22.68-5.42,4-11.27,7.38-17.44,10.06-3.38,1.59-7.21,1.98-10.84,1.1Z"/>
</svg>