<?xml version="1.0" encoding="UTF-8"?><svg id="Layer_1" xmlns="http://www.w3.org/2000/svg" viewBox="0 0 16 16"><defs><style>.cls-1{fill:#bdbdbd;}</style></defs><path d="M14,9c0-.55-.45-1-1-1h-4c-.55,0,0,.55,0,0V4c0-.55-.45-1-1-1h0c-.55,0-1,.45-1,1v4c0,.55,.55,0,0,0H3c-.55,0-1,.45-1,1h0c0,.55,.45,1,1,1H7c.55,0,0-.55,0,0v4c0,.55,.45,1,1,1h0c.55,0,1-.45,1-1v-4c0-.55-.55,0,0,0h4c.55,0,1-.45,1-1h0Z"/><path class="cls-1" d="M14,8c0-.55-.45-1-1-1h-4c-.55,0,0,.55,0,0V3c0-.55-.45-1-1-1h0c-.55,0-1,.45-1,1V7c0,.55,.55,0,0,0H3c-.55,0-1,.45-1,1h0c0,.55,.45,1,1,1H7c.55,0,0-.55,0,0v4c0,.55,.45,1,1,1h0c.55,0,1-.45,1-1v-4c0-.55-.55,0,0,0h4c.55,0,1-.45,1-1h0Z"/></svg>