<?xml version="1.0" encoding="UTF-8"?>
<svg id="Layer_1" xmlns="http://www.w3.org/2000/svg" version="1.1" viewBox="0 0 16 16">
  <!-- Generator: Adobe Illustrator 29.8.4, SVG Export Plug-In . SVG Version: 2.1.1 Build 6)  -->
  <defs>
    <style>
      .st0 {
        fill: #0ff;
      }

      .st1 {
        fill: #f0f;
      }

      .st2 {
        fill: #ff0;
      }
    </style>
  </defs>
  <polygon class="st0" points="14 14 1 14 0 6 15 6 14 14"/>
  <polygon class="st0" points="6 4 6 3 1 3 1 5 6 5 14 5 14 4 6 4"/>
  <polygon class="st1" points="14 13 1 13 0 5 15 5 14 13"/>
  <polygon class="st1" points="6 3 6 2 1 2 1 4 6 4 14 4 14 3 6 3"/>
  <polygon class="st2" points="7 11.7 4.7 9.4 5.3 8.6 7 10.3 9.6 7.7 10.4 8.4 7 11.7"/>
</svg>