<?xml version="1.0" encoding="UTF-8"?><svg id="Layer_1" xmlns="http://www.w3.org/2000/svg" viewBox="0 0 16 16"><defs><style>.cls-1{fill:#bfbfbf;}.cls-2{stroke:#bfbfbf;}.cls-2,.cls-3{fill:none;stroke-miterlimit:10;stroke-width:2px;}.cls-3{stroke:#000;}</style></defs><g><path class="cls-3" d="M4,6v-2c0-.55,.45-1,1-1H13.5c.27,0,.5,.45,.5,1V14c0,.55-.23,1-.5,1H5c-.55,0-1-.45-1-1v-2"/><rect x="1" y="7" width="5" height="4"/><polyline points="6 6.17 8.83 9 6 11.83"/></g><g><path class="cls-2" d="M4,5V3c0-.55,.45-1,1-1H13.5c.27,0,.5,.45,.5,1V13c0,.55-.23,1-.5,1H5c-.55,0-1-.45-1-1v-2"/><rect class="cls-1" x="1" y="6" width="5" height="4"/><polyline class="cls-1" points="6 5.17 8.83 8 6 10.83"/></g></svg>