<?xml version="1.0" encoding="UTF-8"?>
<svg id="Layer_1" xmlns="http://www.w3.org/2000/svg" version="1.1" viewBox="0 0 16 16">
  <!-- Generator: Adobe Illustrator 29.8.4, SVG Export Plug-In . SVG Version: 2.1.1 Build 6)  -->
  <defs>
    <style>
      .st0 {
        fill: #0ff;
      }

      .st1 {
        fill: #f0f;
      }
    </style>
  </defs>
  <path class="st0" d="M7.5,13.9c-2.5-.9-6.5-4.9-6.3-8.4,0-1.8,1.5-3.3,3.3-3.3s2.2.6,2.8,1.6l.2.3.2-.3c.6-1,1.7-1.6,2.8-1.6,1.8,0,3.3,1.5,3.3,3.3.2,3.5-3.8,7.5-6.3,8.4Z"/>
  <path class="st1" d="M7.5,12.9c-2.5-.9-6.5-4.9-6.3-8.4,0-1.8,1.5-3.3,3.3-3.3s2.2.6,2.8,1.6l.2.3.2-.3c.6-1,1.7-1.6,2.8-1.6,1.8,0,3.3,1.5,3.3,3.3.2,3.5-3.8,7.5-6.3,8.4Z"/>
</svg>