<?xml version="1.0" encoding="UTF-8"?><svg id="Layer_1" xmlns="http://www.w3.org/2000/svg" viewBox="0 0 16 16"><defs><style>.cls-1{fill:#e15055;}</style></defs><path d="M7.5,13.88c-2.5-.88-6.5-4.88-6.29-8.38,0-1.82,1.48-3.29,3.29-3.29,1.16,0,2.22,.61,2.82,1.62l.18,.3,.18-.3c.6-1.02,1.66-1.62,2.82-1.62,1.82,0,3.29,1.48,3.29,3.29,.21,3.5-3.79,7.5-6.29,8.38Z"/><path class="cls-1" d="M7.5,12.88c-2.5-.88-6.5-4.88-6.29-8.38,0-1.82,1.48-3.29,3.29-3.29,1.16,0,2.22,.61,2.82,1.62l.18,.3,.18-.3c.6-1.02,1.66-1.62,2.82-1.62,1.82,0,3.29,1.48,3.29,3.29,.21,3.5-3.79,7.5-6.29,8.38Z"/></svg>