<svg id="4aca275a-81cb-485f-87dc-12b8c655b812" data-name="Layer 1" xmlns="http://www.w3.org/2000/svg" width="24" height="24" viewBox="0 0 24 24"><title>fullscreen</title><rect x="12.25736" y="3.96447" width="8.48528" height="7.07107" transform="translate(-0.47056 13.86396) rotate(-45)" fill="#404040"/><path d="M24,11V2a2.00588,2.00588,0,0,0-2-2H13" fill="#404040"/><path d="M22,13v9H13V13a2.0064,2.0064,0,0,0-2-2H2V2h9V0H2A2.0064,2.0064,0,0,0,0,2V22a2.0064,2.0064,0,0,0,2,2H22a2.0064,2.0064,0,0,0,2-2V13Z" fill="#404040"/></svg>