<svg id="fa0c3e09-b041-4d3e-ab78-a05ea0fb0643" data-name="Layer 1" xmlns="http://www.w3.org/2000/svg" width="14" height="25" viewBox="0 0 14 25"><title>help</title><path d="M3.8672,16.6652l-.0352-.9101a7.71478,7.71478,0,0,1,2.0654-5.4956C7.01761,8.9294,7.9277,7.8093,7.9277,6.6193c0-1.2251-.8052-2.0302-2.5557-2.1001A6.613,6.613,0,0,0,1.9067,5.569L.7168,1.7536A12.0113,12.0113,0,0,1,6.5625.3186c4.6206,0,6.7207,2.5551,6.7207,5.4604,0,2.6607-1.645,4.4107-2.97559,5.8809A6.0198,6.0198,0,0,0,8.5224,16.0354v.6298ZM2.957,21.4958a3.03374,3.03374,0,0,1,3.1152-3.1855,3.04233,3.04233,0,0,1,3.15041,3.1855A3.04192,3.04192,0,0,1,6.0722,24.6814,3.03359,3.03359,0,0,1,2.957,21.4958Z" fill="#404040"/></svg>