<?xml version="1.0" encoding="UTF-8"?><svg id="Layer_1" xmlns="http://www.w3.org/2000/svg" viewBox="0 0 14 25"><defs><style>.cls-1{fill:#404040;}</style></defs><path class="cls-1" d="M3.34,16.35l-.04-.91c-.1-1.79,.49-3.61,2.07-5.5,1.12-1.33,2.03-2.45,2.03-3.64s-.81-2.03-2.56-2.1c-1.15,0-2.56,.42-3.47,1.05L.19,1.44C1.45,.7,3.55,0,6.04,0c4.62,0,6.72,2.56,6.72,5.46,0,2.66-1.64,4.41-2.98,5.88-1.29,1.43-1.82,2.8-1.79,4.38v.63H3.34Zm-.91,4.83c0-1.86,1.29-3.19,3.12-3.19s3.12,1.33,3.15,3.19c0,1.82-1.26,3.19-3.15,3.19s-3.12-1.37-3.12-3.19Z"/></svg>