<?xml version="1.0" encoding="UTF-8"?><svg id="Layer_1" xmlns="http://www.w3.org/2000/svg" viewBox="0 0 24 24"><defs><style>.cls-1{fill:#404040;}</style></defs><path class="cls-1" d="M23,14c.55,0,1-.45,1-1v-2c0-.55-.45-1-1-1h-.2c-.55,0-1.13-.43-1.3-.96l-.69-1.68c-.26-.48-.15-1.2,.23-1.59l.15-.15c.39-.39,.39-1.03,0-1.41l-1.41-1.41c-.39-.39-1.03-.39-1.41,0l-.15,.15c-.39,.39-1.1,.49-1.59,.23l-1.68-.69c-.53-.16-.96-.75-.96-1.3v-.2c0-.55-.45-1-1-1h-2c-.55,0-1,.45-1,1v.2c0,.55-.43,1.13-.96,1.3l-1.68,.69c-.48,.26-1.2,.15-1.59-.23l-.15-.15c-.39-.39-1.03-.39-1.41,0l-1.41,1.41c-.39,.39-.39,1.03,0,1.41l.15,.15c.39,.39,.49,1.1,.23,1.59l-.69,1.68c-.16,.53-.75,.96-1.3,.96h-.2C.45,10,0,10.45,0,11v2C0,13.55,.45,14,1,14h.2c.55,0,1.13,.43,1.3,.96l.69,1.68c.26,.48,.15,1.2-.23,1.59l-.15,.15c-.39,.39-.39,1.03,0,1.41l1.41,1.41c.39,.39,1.03,.39,1.41,0l.15-.15c.39-.39,1.1-.49,1.59-.23l1.68,.69c.53,.16,.96,.75,.96,1.3v.2c0,.55,.45,1,1,1h2c.55,0,1-.45,1-1v-.2c0-.55,.43-1.13,.96-1.3l1.68-.69c.48-.26,1.2-.15,1.59,.23l.15,.15c.39,.39,1.03,.39,1.41,0l1.41-1.41c.39-.39,.39-1.03,0-1.41l-.15-.15c-.39-.39-.49-1.1-.23-1.59l.69-1.68c.16-.53,.75-.96,1.3-.96h.2Zm-11,2.4c-2.43,0-4.4-1.97-4.4-4.4s1.97-4.4,4.4-4.4,4.4,1.97,4.4,4.4-1.97,4.4-4.4,4.4Z"/></svg>