<svg id="bb574dc5-ab3f-409d-8d6f-816942ba93db" data-name="Layer 1" xmlns="http://www.w3.org/2000/svg" width="24" height="24" viewBox="0 0 24 24"><title>settings</title><path d="M23,14a1.00294,1.00294,0,0,0,1-1V11a1.00294,1.00294,0,0,0-1-1h-.20121a1.4465,1.4465,0,0,1-1.29613-.95515l-.68981-1.67552a1.43225,1.43225,0,0,1,.234-1.58814l.14538-.14538a1.003,1.003,0,0,0,0-1.41422L19.7784,2.80771a1.003,1.003,0,0,0-1.41422,0l-.14538.14538a1.43225,1.43225,0,0,1-1.58814.23406l-1.67553-.68976A1.4466,1.4466,0,0,1,14,1.2012V1a1.00294,1.00294,0,0,0-1-1H11a1.00294,1.00294,0,0,0-1,1v.2012a1.44662,1.44662,0,0,1-.95513,1.29619l-1.67555.68976a1.43226,1.43226,0,0,1-1.58814-.23406L5.6358,2.80771a1.003,1.003,0,0,0-1.41422,0L2.8077,4.22159a1.003,1.003,0,0,0,0,1.41422l.14538.14538a1.43227,1.43227,0,0,1,.23406,1.58815L2.49733,9.04485A1.44652,1.44652,0,0,1,1.20119,10H1a1.00294,1.00294,0,0,0-1,1v2a1.00294,1.00294,0,0,0,1,1h.20119a1.44652,1.44652,0,0,1,1.29614.95515l.68981,1.67551a1.43227,1.43227,0,0,1-.23406,1.58815l-.14538.14538a1.003,1.003,0,0,0,0,1.41422l1.41388,1.41388a1.003,1.003,0,0,0,1.41422,0l.14538-.14538a1.43226,1.43226,0,0,1,1.58814-.23406l1.67555.68976A1.44662,1.44662,0,0,1,10,22.7988V23a1.00294,1.00294,0,0,0,1,1h2a1.00294,1.00294,0,0,0,1-1v-.2012a1.4466,1.4466,0,0,1,.95513-1.29619l1.67553-.68976a1.43225,1.43225,0,0,1,1.58814.23406l.14538.14538a1.003,1.003,0,0,0,1.41422,0l1.41388-1.41388a1.003,1.003,0,0,0,0-1.41422l-.14538-.14538a1.43225,1.43225,0,0,1-.234-1.58814l.68981-1.67552A1.4465,1.4465,0,0,1,22.79879,14ZM12,16.4004A4.4004,4.4004,0,1,1,16.40039,12,4.40156,4.40156,0,0,1,12,16.4004Z" fill="#404040"/></svg>