<svg id="Layer_1" data-name="Layer 1" xmlns="http://www.w3.org/2000/svg" viewBox="0 0 595 132">
    <defs>
        <style>
            .cls-1 {
                fill: #E8B800;
            }

        </style>
    </defs>
    <path class="cls-1" d="M437.54,3.19h-1.23a.93.93,0,0,1-.92-.93V1a.93.93,0,0,0-.93-.92h0a.92.92,0,0,0-.92.92V2.26a.93.93,0,0,1-.92.93h-1.23a.93.93,0,0,0-.93.92h0a.93.93,0,0,0,.93.92h1.23a.93.93,0,0,1,.92.93V7.19a.92.92,0,0,0,.92.92h0a.93.93,0,0,0,.93-.92V6a.93.93,0,0,1,.92-.93h1.23a.92.92,0,0,0,.92-.92h0A.92.92,0,0,0,437.54,3.19Z" />
    <path class="cls-1" d="M243.54,32.19h-1.23a.93.93,0,0,1-.92-.93V30a.93.93,0,0,0-.93-.92h0a.92.92,0,0,0-.92.92v1.23a.93.93,0,0,1-.92.93h-1.23a.93.93,0,0,0-.93.92h0a.93.93,0,0,0,.93.92h1.23a.93.93,0,0,1,.92.93v1.23a.92.92,0,0,0,.92.92h0a.93.93,0,0,0,.93-.92V35a.93.93,0,0,1,.92-.93h1.23a.92.92,0,0,0,.92-.92h0A.92.92,0,0,0,243.54,32.19Z" />
    <path class="cls-1" d="M357.54,17.44h-1.23a.93.93,0,0,1-.92-.93V15.28a.93.93,0,0,0-.93-.92h0a.92.92,0,0,0-.92.92v1.23a.93.93,0,0,1-.92.93h-1.23a.93.93,0,0,0-.93.92h0a.93.93,0,0,0,.93.92h1.23a.93.93,0,0,1,.92.93v1.23a.92.92,0,0,0,.92.92h0a.93.93,0,0,0,.93-.92V20.21a.93.93,0,0,1,.92-.93h1.23a.92.92,0,0,0,.92-.92h0A.92.92,0,0,0,357.54,17.44Z" />
    <path class="cls-1" d="M168.39,112.53h-.77A.58.58,0,0,1,167,112v-.77a.58.58,0,0,0-.58-.58h0a.58.58,0,0,0-.57.58V112a.58.58,0,0,1-.58.57h-.77a.58.58,0,0,0-.58.58h0a.58.58,0,0,0,.58.58h.77a.58.58,0,0,1,.58.57V115a.58.58,0,0,0,.57.58h0A.58.58,0,0,0,167,115v-.77a.58.58,0,0,1,.58-.57h.77a.57.57,0,0,0,.57-.58h0A.57.57,0,0,0,168.39,112.53Z" />
    <path class="cls-1" d="M451.31,100h-1.54a1.15,1.15,0,0,1-1.15-1.16V97.26a1.16,1.16,0,0,0-1.16-1.15h0a1.16,1.16,0,0,0-1.15,1.15V98.8a1.16,1.16,0,0,1-1.15,1.16h-1.54a1.15,1.15,0,0,0-1.16,1.15h0a1.15,1.15,0,0,0,1.16,1.15h1.54a1.16,1.16,0,0,1,1.15,1.16V105a1.16,1.16,0,0,0,1.15,1.15h0a1.16,1.16,0,0,0,1.16-1.15v-1.54a1.15,1.15,0,0,1,1.15-1.16h1.54a1.14,1.14,0,0,0,1.15-1.15h0A1.14,1.14,0,0,0,451.31,100Z" />
    <path class="cls-1" d="M129.31,26h-1.54a1.15,1.15,0,0,1-1.15-1.16V23.26a1.16,1.16,0,0,0-1.16-1.15h0a1.16,1.16,0,0,0-1.15,1.15V24.8A1.16,1.16,0,0,1,123.16,26h-1.54a1.15,1.15,0,0,0-1.16,1.15h0a1.15,1.15,0,0,0,1.16,1.15h1.54a1.16,1.16,0,0,1,1.15,1.16V31a1.16,1.16,0,0,0,1.15,1.15h0A1.16,1.16,0,0,0,126.62,31V29.42a1.15,1.15,0,0,1,1.15-1.16h1.54a1.14,1.14,0,0,0,1.15-1.15h0A1.14,1.14,0,0,0,129.31,26Z" />
    <path class="cls-1" d="M208.31,126h-1.54a1.15,1.15,0,0,1-1.15-1.16v-1.54a1.16,1.16,0,0,0-1.16-1.15h0a1.16,1.16,0,0,0-1.15,1.15v1.54a1.16,1.16,0,0,1-1.15,1.16h-1.54a1.15,1.15,0,0,0-1.16,1.15h0a1.15,1.15,0,0,0,1.16,1.15h1.54a1.16,1.16,0,0,1,1.15,1.16V131a1.16,1.16,0,0,0,1.15,1.15h0a1.16,1.16,0,0,0,1.16-1.15v-1.54a1.15,1.15,0,0,1,1.15-1.16h1.54a1.14,1.14,0,0,0,1.15-1.15h0A1.14,1.14,0,0,0,208.31,126Z" />
    <path class="cls-1" d="M137.54,73.19h-1.23a.93.93,0,0,1-.92-.93V71a.93.93,0,0,0-.93-.92h0a.92.92,0,0,0-.92.92v1.23a.93.93,0,0,1-.92.93h-1.23a.93.93,0,0,0-.93.92h0a.93.93,0,0,0,.93.92h1.23a.93.93,0,0,1,.92.93v1.23a.92.92,0,0,0,.92.92h0a.93.93,0,0,0,.93-.92V76a.93.93,0,0,1,.92-.93h1.23a.92.92,0,0,0,.92-.92h0A.92.92,0,0,0,137.54,73.19Z" />
    <path class="cls-1" d="M448.39,59.53h-.77A.58.58,0,0,1,447,59v-.77a.58.58,0,0,0-.58-.58h0a.58.58,0,0,0-.57.58V59a.58.58,0,0,1-.58.57h-.77a.58.58,0,0,0-.58.58h0a.58.58,0,0,0,.58.58h.77a.58.58,0,0,1,.58.57V62a.58.58,0,0,0,.57.58h0A.58.58,0,0,0,447,62v-.77a.58.58,0,0,1,.58-.57h.77a.57.57,0,0,0,.57-.58h0A.57.57,0,0,0,448.39,59.53Z" />
    <path class="cls-1" d="M307.39,81.53h-.77A.58.58,0,0,1,306,81v-.77a.58.58,0,0,0-.58-.58h0a.58.58,0,0,0-.57.58V81a.58.58,0,0,1-.58.57h-.77a.58.58,0,0,0-.58.58h0a.58.58,0,0,0,.58.58h.77a.58.58,0,0,1,.58.57V84a.58.58,0,0,0,.57.58h0A.58.58,0,0,0,306,84v-.77a.58.58,0,0,1,.58-.57h.77a.57.57,0,0,0,.57-.58h0A.57.57,0,0,0,307.39,81.53Z" />
    <path class="cls-1" d="M178.89,8h-.77a.58.58,0,0,1-.58-.57V6.69a.58.58,0,0,0-.58-.58h0a.58.58,0,0,0-.57.58v.77a.58.58,0,0,1-.58.57H175a.58.58,0,0,0-.58.58h0a.58.58,0,0,0,.58.58h.77a.58.58,0,0,1,.58.57v.77a.58.58,0,0,0,.57.58h0a.58.58,0,0,0,.58-.58V9.76a.58.58,0,0,1,.58-.57h.77a.57.57,0,0,0,.57-.58h0A.57.57,0,0,0,178.89,8Z" />
    <path class="cls-1" d="M8.64,78.53H7.1A1.15,1.15,0,0,1,6,77.38V75.84a1.16,1.16,0,0,0-1.16-1.16h0a1.16,1.16,0,0,0-1.15,1.16v1.54a1.16,1.16,0,0,1-1.15,1.15H1A1.16,1.16,0,0,0-.21,79.68h0A1.16,1.16,0,0,0,1,80.84H2.49A1.15,1.15,0,0,1,3.64,82v1.54a1.15,1.15,0,0,0,1.15,1.15h0A1.15,1.15,0,0,0,6,83.53V82A1.14,1.14,0,0,1,7.1,80.84H8.64a1.15,1.15,0,0,0,1.15-1.16h0A1.15,1.15,0,0,0,8.64,78.53Z" />
    <path class="cls-1" d="M579.64,48.53H578.1A1.15,1.15,0,0,1,577,47.38V45.84a1.16,1.16,0,0,0-1.16-1.16h0a1.16,1.16,0,0,0-1.15,1.16v1.54a1.16,1.16,0,0,1-1.15,1.15H572a1.16,1.16,0,0,0-1.16,1.15h0A1.16,1.16,0,0,0,572,50.84h1.54A1.15,1.15,0,0,1,574.64,52v1.54a1.15,1.15,0,0,0,1.15,1.15h0A1.15,1.15,0,0,0,577,53.53V52a1.14,1.14,0,0,1,1.15-1.15h1.54a1.15,1.15,0,0,0,1.15-1.16h0A1.15,1.15,0,0,0,579.64,48.53Z" />
    <path class="cls-1" d="M525.87,73.76h-1.23a.92.92,0,0,1-.92-.92V71.61a.93.93,0,0,0-.93-.93h0a.93.93,0,0,0-.92.93v1.23a.92.92,0,0,1-.92.92h-1.23a.93.93,0,0,0-.93.92h0a.93.93,0,0,0,.93.93H521a.92.92,0,0,1,.92.92v1.23a.92.92,0,0,0,.92.92h0a.93.93,0,0,0,.93-.92V76.53a.92.92,0,0,1,.92-.92h1.23a.93.93,0,0,0,.92-.93h0A.92.92,0,0,0,525.87,73.76Z" />
    <path class="cls-1" d="M49.87,26.76H48.64a.92.92,0,0,1-.92-.92V24.61a.93.93,0,0,0-.93-.93h0a.93.93,0,0,0-.92.93v1.23a.92.92,0,0,1-.92.92H43.72a.93.93,0,0,0-.93.92h0a.93.93,0,0,0,.93.93H45a.92.92,0,0,1,.92.92v1.23a.92.92,0,0,0,.92.92h0a.93.93,0,0,0,.93-.92V29.53a.92.92,0,0,1,.92-.92h1.23a.93.93,0,0,0,.92-.93h0A.92.92,0,0,0,49.87,26.76Z" />
    <path class="cls-1" d="M69.22,77.61h-.77a.58.58,0,0,1-.58-.58v-.77a.58.58,0,0,0-.58-.58h0a.58.58,0,0,0-.57.58V77a.58.58,0,0,1-.58.58h-.77a.57.57,0,0,0-.58.57h0a.58.58,0,0,0,.58.58h.77a.58.58,0,0,1,.58.58v.77a.57.57,0,0,0,.57.57h0a.57.57,0,0,0,.58-.57v-.77a.58.58,0,0,1,.58-.58h.77a.57.57,0,0,0,.57-.58h0A.56.56,0,0,0,69.22,77.61Z" />
    <path class="cls-1" d="M509.87,26.76h-1.23a.92.92,0,0,1-.92-.92V24.61a.93.93,0,0,0-.93-.93h0a.93.93,0,0,0-.92.93v1.23a.92.92,0,0,1-.92.92h-1.23a.93.93,0,0,0-.93.92h0a.93.93,0,0,0,.93.93H505a.92.92,0,0,1,.92.92v1.23a.92.92,0,0,0,.92.92h0a.93.93,0,0,0,.93-.92V29.53a.92.92,0,0,1,.92-.92h1.23a.93.93,0,0,0,.92-.93h0A.92.92,0,0,0,509.87,26.76Z" />
    <path class="cls-1" d="M593.85,85.83h-.77a.58.58,0,0,1-.58-.58v-.76a.58.58,0,0,0-.57-.58h0a.58.58,0,0,0-.58.58v.76a.58.58,0,0,1-.58.58H590a.57.57,0,0,0-.57.58h0A.57.57,0,0,0,590,87h.77a.57.57,0,0,1,.58.57v.77a.58.58,0,0,0,.58.58h0a.58.58,0,0,0,.57-.58v-.77a.57.57,0,0,1,.58-.57h.77a.58.58,0,0,0,.58-.58h0A.58.58,0,0,0,593.85,85.83Z" />
</svg>
