<?xml version="1.0" encoding="UTF-8"?>
<svg id="Layer_1" xmlns="http://www.w3.org/2000/svg" version="1.1" viewBox="0 0 18 18">
  <!-- Generator: Adobe Illustrator 29.8.4, SVG Export Plug-In . SVG Version: 2.1.1 Build 6)  -->
  <defs>
    <style>
      .st0 {
        fill: #f0f;
      }
    </style>
  </defs>
  <path class="st0" d="M14.7,9.2c-.6-.6-1.5-.6-2.1,0l-1.6,1.6v-4.3c0-.8-.7-1.5-1.5-1.5s-1.5.7-1.5,1.5v4.4l-1.6-1.6c-.6-.6-1.5-.6-2.1,0-.6.6-.6,1.5,0,2.1l4.1,4.1h0c.1,0,.2.1.3.2,0,0,.1,0,.2.1.2,0,.4.1.6.1s.4,0,.6-.1c0,0,.1,0,.2-.1.1,0,.2-.1.3-.2h0l4.1-4.2c.6-.6.6-1.5,0-2.1h0Z"/>
  <circle class="st0" cx="9.5" cy="2" r="1.5"/>
</svg>