<?xml version="1.0" encoding="UTF-8"?><svg id="Layer_1" xmlns="http://www.w3.org/2000/svg" viewBox="0 0 18 18"><defs><style>.cls-1{fill:#404040;}</style></defs><path class="cls-1" d="M14.67,9.21c-.59-.58-1.54-.57-2.12,.03l-1.55,1.59V6.5c0-.83-.67-1.5-1.5-1.5s-1.5,.67-1.5,1.5v4.38l-1.56-1.56c-.59-.59-1.54-.59-2.12,0-.59,.59-.59,1.54,0,2.12l4.12,4.12s0,0,0,0c0,0,0,0,0,0,.1,.09,.21,.15,.32,.21,.06,.03,.1,.08,.16,.11,.18,.07,.37,.11,.56,.11s.39-.04,.57-.11c.06-.02,.11-.08,.17-.11,.11-.06,.23-.12,.33-.22,0,0,0,0,0,0,0,0,0,0,0,0l4.12-4.22c.58-.59,.57-1.54-.03-2.12Z"/><circle class="cls-1" cx="9.5" cy="2" r="1.5"/></svg>