<?xml version="1.0" encoding="UTF-8"?><svg id="Layer_1" xmlns="http://www.w3.org/2000/svg" viewBox="0 0 18 18"><defs><style>.cls-1{fill:#404040;}</style></defs><path class="cls-1" d="M8.99,5.17c-1.01,0-1.83,.82-1.83,1.83s.82,1.83,1.83,1.83,1.83-.82,1.83-1.83-.82-1.83-1.83-1.83Zm0,2.67c-.46,0-.83-.37-.83-.83s.37-.83,.83-.83,.83,.37,.83,.83-.37,.83-.83,.83Z"/><path class="cls-1" d="M14,1H4c-.55,0-1,.45-1,1v15l6-5,6,5V2c0-.55-.45-1-1-1Zm-5.01,9c-1.85,0-3.43-1.44-4.12-3.03,.69-1.59,2.28-2.97,4.12-2.97s3.43,1.38,4.12,2.97c-.7,1.59-2.28,3.03-4.12,3.03Z"/></svg>