<?xml version="1.0" encoding="UTF-8"?>
<svg id="Layer_1" xmlns="http://www.w3.org/2000/svg" version="1.1" viewBox="0 0 18 18">
  <!-- Generator: Adobe Illustrator 29.8.4, SVG Export Plug-In . SVG Version: 2.1.1 Build 6)  -->
  <defs>
    <style>
      .st0 {
        fill: #f0f;
      }
    </style>
  </defs>
  <path class="st0" d="M9,5.2c-1,0-1.8.8-1.8,1.8s.8,1.8,1.8,1.8,1.8-.8,1.8-1.8-.8-1.8-1.8-1.8ZM9,7.8c-.5,0-.8-.4-.8-.8s.4-.8.8-.8.8.4.8.8-.4.8-.8.8Z"/>
  <path class="st0" d="M14,1H4c-.5,0-1,.5-1,1v15l6-5,6,5V2c0-.5-.4-1-1-1ZM9,10c-1.8,0-3.4-1.4-4.1-3,.7-1.6,2.3-3,4.1-3s3.4,1.4,4.1,3c-.7,1.6-2.3,3-4.1,3Z"/>
</svg>