<?xml version="1.0" encoding="UTF-8"?>
<svg id="Layer_1" xmlns="http://www.w3.org/2000/svg" version="1.1" viewBox="0 0 18 18">
  <!-- Generator: Adobe Illustrator 29.8.4, SVG Export Plug-In . SVG Version: 2.1.1 Build 6)  -->
  <defs>
    <style>
      .st0 {
        fill: #f0f;
      }
    </style>
  </defs>
  <path class="st0" d="M11.9,6h-7.9v10c0,.5.5,1,1.1,1h6.7c.6,0,1.1-.5,1.1-1V6h-1.1,0ZM7,15h-1v-7h1v7ZM9,15h-1v-7h1v7ZM11,15h-1v-7h1v7Z"/>
  <path class="st0" d="M13,3h-2v-1c0-.5-.4-1-1-1h-3c-.6,0-1,.5-1,1v1h-2c-.5,0-1,.5-1,1v1h11v-1c0-.5-.4-1-1-1ZM7,2h3v1h-3v-1Z"/>
</svg>